<svg width="200" height="200" viewBox="0 0 200 200" xmlns="http://www.w3.org/2000/svg">
  <defs>
    <linearGradient id="bagGradient" x1="0%" y1="0%" x2="100%" y2="100%">
      <stop offset="0%" style="stop-color:#4a90e2;stop-opacity:1" />
      <stop offset="100%" style="stop-color:#2563eb;stop-opacity:1" />
    </linearGradient>
    <linearGradient id="chartGradient" x1="0%" y1="100%" x2="100%" y2="0%">
      <stop offset="0%" style="stop-color:#06b6d4;stop-opacity:0.3" />
      <stop offset="100%" style="stop-color:#0ea5e9;stop-opacity:0.8" />
    </linearGradient>
  </defs>

  <!-- Background chart/canvas -->
  <rect x="80" y="40" width="100" height="100" rx="12" fill="url(#chartGradient)" opacity="0.4"/>

  <!-- Upward trending arrow -->
  <path d="M 105 115 L 140 70 L 155 85" stroke="#1e40af" stroke-width="6" fill="none" stroke-linecap="round" stroke-linejoin="round"/>

  <!-- Chart lines -->
  <line x1="90" y1="130" x2="170" y2="130" stroke="#1e40af" stroke-width="3" opacity="0.4"/>
  <line x1="90" y1="120" x2="95" y2="120" stroke="#1e40af" stroke-width="2" opacity="0.5"/>
  <line x1="105" y1="110" x2="115" y2="110" stroke="#1e40af" stroke-width="2" opacity="0.5"/>
  <line x1="125" y1="95" x2="140" y2="95" stroke="#1e40af" stroke-width="2" opacity="0.5"/>

  <!-- Money bag body -->
  <ellipse cx="70" cy="120" rx="35" ry="40" fill="url(#bagGradient)"/>

  <!-- Bag highlight/shine -->
  <ellipse cx="60" cy="105" rx="15" ry="20" fill="#fff" opacity="0.3"/>

  <!-- Bag string/closure -->
  <path d="M 50 80 Q 50 70 60 65 Q 70 62 70 65 Q 70 62 80 65 Q 90 70 90 80" stroke="#1e40af" stroke-width="4" fill="none" stroke-linecap="round"/>

  <!-- "V" letter in bag -->
  <g transform="translate(70, 110)">
    <path d="M -12 -8 L 0 12 L 12 -8" stroke="#fff" stroke-width="5" fill="none" stroke-linecap="round" stroke-linejoin="round"/>
  </g>

  <!-- Shine on bag -->
  <circle cx="50" cy="135" r="6" fill="#fff" opacity="0.4"/>
</svg>